{"title":"The Wronged Man (2010) XviD AC3 Cody'sDvDrip","uid":5890791,"size":1364282048,"categoryP":"video","categoryS":"movies","magnet":"?xt=urn:btih:e18b7036fc5c7bff897686c32a34d9ec33826caa&amp;dn=The+Wronged+Man+%282010%29+XviD+AC3+Cody%5C%27sDvDrip&amp;tr=udp%3A%2F%2Ftracker.openbittorrent.com%3A80&amp;tr=udp%3A%2F%2Fopen.demonii.com%3A1337&amp;tr=udp%3A%2F%2Ftracker.coppersurfer.tk%3A6969&amp;tr=udp%3A%2F%2Fexodus.desync.com%3A6969","seeders":0,"leechers":0,"uploader":"CODYBOSS1969","files":5,"time":1287236279,"description":"General\nComplete name                    : The Wronged Man (2010) XviD AC3 Cody'sDvDrip.avi\nFormat                           : AVI\nFormat/Info                      : Audio Video Interleave\nFile size                        : 1.27 GiB\nDuration                         : 1h 25mn\nOverall bit rate                 : 2 128 Kbps\nWriting application              : VirtualDubMod 1.5.10.2 (build 2540/release)\nWriting library                  : VirtualDubMod build 2540/release\n\nVideo\nFormat                           : MPEG-4 Visual\nFormat profile                   : Streaming Video@L1\nFormat settings, BVOP            : Yes\nFormat settings, QPel            : No\nFormat settings, GMC             : No warppoints\nFormat settings, Matrix          : Default\nCodec ID                         : XVID\nCodec ID/Hint                    : XviD\nDuration                         : 1h 25mn\nBit rate                         : 1 734 Kbps\nWidth                            : 720 pixels\nHeight                           : 400 pixels\nDisplay aspect ratio             : 16/9\nFrame rate                       : 25.000 fps\nResolution                       : 24 bits\nColorimetry                      : 4:2:0\nScan type                        : Progressive\nBits/(Pixel*Frame)               : 0.241\nStream size                      : 1.03 GiB (81%)\nWriting library                  : XviD 1.2.0.dev47 (UTC 2006-11-01)\n\nAudio\nFormat                           : AC-3\nFormat/Info                      : Audio Coding 3\nCodec ID                         : 2000\nDuration                         : 1h 25mn\nBit rate mode                    : Constant\nBit rate                         : 384 Kbps\nChannel(s)                       : 6 channels\nChannel positions                : Front: L C R, Rear: L R, LFE\nSampling rate                    : 48.0 KHz\nStream size                      : 235 MiB (18%)\nAlignment                        : Split accross interleaves\nInterleave, duration             : 40 ms (1.00 video frame)\nInterleave, preload duration     : 500 ms\n\n\n\nSubtitles included: Romanian\n\n\nIMDB link:       &lt;a href=&quot; http://www.imdb.com/title/tt1390543/&quot; rel=&quot;nofollow&quot; target=&quot;_NEW&quot;&gt; http://www.imdb.com/title/tt1390543/&lt;/a&gt;","torrent":{"xt":"urn:btih:e18b7036fc5c7bff897686c32a34d9ec33826caa","amp;dn":"The+Wronged+Man+%282010%29+XviD+AC3+Cody%5C%27sDvDrip","amp;tr":["udp%3A%2F%2Ftracker.openbittorrent.com%3A80","udp%3A%2F%2Fopen.demonii.com%3A1337","udp%3A%2F%2Ftracker.coppersurfer.tk%3A6969","udp%3A%2F%2Fexodus.desync.com%3A6969"],"infoHash":"e18b7036fc5c7bff897686c32a34d9ec33826caa","infoHashBuffer":{"type":"Buffer","data":[225,139,112,54,252,92,123,255,137,118,134,195,42,52,217,236,51,130,108,170]},"announce":[],"urlList":[]}}